<?xml version="1.0" encoding="utf-8"?>
<!-- Generator: Adobe Illustrator 27.5.0, SVG Export Plug-In . SVG Version: 6.00 Build 0)  -->
<svg version="1.1" id="Layer_1" xmlns="http://www.w3.org/2000/svg" xmlns:xlink="http://www.w3.org/1999/xlink" x="0px" y="0px"
	 viewBox="0 0 110 18" style="enable-background:new 0 0 110 18;" xml:space="preserve">
<style type="text/css">
	.st0{fill:#60C905;}
	.st1{fill:#191919;}
</style>
<g>
	<path class="st0" d="M3.2,14.9C1.8,13.6,1,11.6,1,9.1c0-2.6,0.7-4.6,2.2-6C4.7,1.7,6.8,1,9.6,1c0.9,0,1.7,0.1,2.5,0.2
		c0.7,0.1,1.5,0.3,2.2,0.6v3.9C13,5.2,11.5,4.9,10,4.9c-1.5,0-2.6,0.3-3.3,1c-0.7,0.7-1,1.7-1,3.2c0,1.4,0.4,2.4,1.1,3.1
		c0.7,0.6,1.8,1,3.3,1c1.6,0,3.1-0.3,4.4-0.9v4c-1.5,0.5-3.1,0.8-4.8,0.8C6.9,17,4.7,16.3,3.2,14.9z"/>
	<path class="st0" d="M16.1,1.3h4.5v15.5h-4.5V1.3z"/>
	<path class="st0" d="M24.5,15c-1.5-1.3-2.2-3.3-2.2-5.8c0-2.6,0.7-4.6,2.2-6C26.1,1.7,28.2,1,31.1,1c1.8,0,3.4,0.2,4.8,0.7v3.9
		c-1.3-0.5-2.7-0.7-4.5-0.7c-1.5,0-2.6,0.3-3.4,1s-1.1,1.8-1.1,3.3c0,1.4,0.3,2.4,0.9,3c0.6,0.6,1.6,1,2.9,1c0.8,0,1.5-0.1,2.2-0.3
		v-2.3h-3.1V7.8h6.9v7.8c-0.7,0.4-1.5,0.8-2.5,1c-1,0.3-2.2,0.4-3.5,0.4C28,17,25.9,16.3,24.5,15z"/>
</g>
<g>
	<path class="st1" d="M39.4,7.4c-0.5-0.5-0.8-1.2-0.8-2.2c0-1,0.3-1.7,0.8-2.2c0.5-0.5,1.3-0.8,2.4-0.8c0.3,0,0.6,0,0.9,0.1
		s0.6,0.1,0.8,0.2V4c-0.5-0.2-1.1-0.3-1.6-0.3c-0.5,0-0.9,0.1-1.2,0.4c-0.3,0.2-0.4,0.6-0.4,1.2c0,0.5,0.1,0.9,0.4,1.1
		c0.3,0.2,0.7,0.4,1.2,0.4c0.6,0,1.1-0.1,1.6-0.3v1.5c-0.6,0.2-1.1,0.3-1.8,0.3C40.7,8.1,39.9,7.9,39.4,7.4z"/>
	<path class="st1" d="M44.1,2.3h3c0.7,0,1.2,0.2,1.5,0.5c0.3,0.4,0.5,0.9,0.5,1.5c0,0.4-0.1,0.7-0.3,1c-0.2,0.3-0.4,0.5-0.8,0.7
		c0.1,0.1,0.1,0.1,0.2,0.2c0,0.1,0.1,0.2,0.2,0.3l0.7,1.5h-1.7l-0.6-1.4c0-0.1-0.1-0.2-0.2-0.2c-0.1,0-0.2-0.1-0.3-0.1h-0.5v1.7
		h-1.7V2.3z M46.7,5.1c0.2,0,0.4-0.1,0.6-0.2c0.1-0.1,0.2-0.3,0.2-0.5c0-0.5-0.2-0.8-0.7-0.8h-0.9v1.5H46.7z"/>
	<path class="st1" d="M51.1,6L49,2.3h1.7l1.2,2.2l1.2-2.2h1.7L52.8,6v2.1h-1.7V6z"/>
	<path class="st1" d="M55.2,2.3h2.9c0.7,0,1.2,0.2,1.5,0.6c0.3,0.4,0.5,0.9,0.5,1.5c0,0.4-0.1,0.8-0.3,1.1c-0.2,0.3-0.4,0.6-0.7,0.7
		c-0.3,0.2-0.7,0.3-1.1,0.3h-1.2v1.5h-1.7V2.3z M57.7,5.2c0.2,0,0.4-0.1,0.6-0.2c0.1-0.1,0.2-0.3,0.2-0.6c0-0.3-0.1-0.5-0.2-0.6
		c-0.1-0.1-0.3-0.2-0.5-0.2h-0.9v1.6H57.7z"/>
	<path class="st1" d="M61.9,3.6h-1.6V2.3h4.9v1.2h-1.6v4.5h-1.7V3.6z"/>
	<path class="st1" d="M65.7,7.4C65.2,7,65,6.2,65,5.2c0-1,0.2-1.8,0.7-2.3c0.5-0.5,1.2-0.7,2.2-0.7c1,0,1.7,0.2,2.2,0.7
		s0.7,1.2,0.7,2.3c0,1-0.2,1.7-0.7,2.2c-0.5,0.5-1.2,0.7-2.2,0.7S66.2,7.9,65.7,7.4z M68.8,6.4c0.2-0.2,0.3-0.6,0.3-1.1
		c0-0.6-0.1-1-0.3-1.2c-0.2-0.2-0.5-0.4-0.9-0.4S67.1,3.8,66.9,4c-0.2,0.2-0.3,0.6-0.3,1.2c0,0.5,0.1,0.9,0.3,1.1
		c0.2,0.2,0.5,0.4,0.9,0.4S68.6,6.6,68.8,6.4z"/>
	<path class="st1" d="M74.4,2.3h1.7v5.7h-1.7V2.3z"/>
	<path class="st1" d="M76.9,2.3h1.4l2.2,3v-3h1.7v5.7h-1.4l-2.1-3v3h-1.7V2.3z"/>
	<path class="st1" d="M82.8,2.3h1.7l1.3,3.8l1.3-3.8h1.7l-2.2,5.7H85L82.8,2.3z"/>
	<path class="st1" d="M89.5,7.4C89,7,88.8,6.2,88.8,5.2c0-1,0.2-1.8,0.7-2.3c0.5-0.5,1.2-0.7,2.2-0.7c1,0,1.7,0.2,2.2,0.7
		s0.7,1.2,0.7,2.3c0,1-0.2,1.7-0.7,2.2c-0.5,0.5-1.2,0.7-2.2,0.7S90,7.9,89.5,7.4z M92.6,6.4c0.2-0.2,0.3-0.6,0.3-1.1
		c0-0.6-0.1-1-0.3-1.2c-0.2-0.2-0.5-0.4-0.9-0.4S91,3.8,90.8,4c-0.2,0.2-0.3,0.6-0.3,1.2c0,0.5,0.1,0.9,0.3,1.1
		c0.2,0.2,0.5,0.4,0.9,0.4S92.4,6.6,92.6,6.4z"/>
	<path class="st1" d="M95.2,2.3h1.7v5.7h-1.7V2.3z"/>
	<path class="st1" d="M98.3,7.4c-0.5-0.5-0.8-1.2-0.8-2.2c0-1,0.3-1.7,0.8-2.2s1.3-0.8,2.4-0.8c0.3,0,0.6,0,0.9,0.1s0.6,0.1,0.8,0.2
		V4c-0.5-0.2-1.1-0.3-1.6-0.3c-0.5,0-0.9,0.1-1.2,0.4c-0.3,0.2-0.4,0.6-0.4,1.2c0,0.5,0.1,0.9,0.4,1.1c0.3,0.2,0.7,0.4,1.2,0.4
		c0.6,0,1.1-0.1,1.6-0.3v1.5c-0.6,0.2-1.1,0.3-1.8,0.3C99.7,8.1,98.9,7.9,98.3,7.4z"/>
	<path class="st1" d="M103.1,2.3h4.3v1.3h-2.7v0.9h2.3v1.3h-2.3v0.9h2.7v1.3h-4.3V2.3z"/>
</g>
<g>
	<path class="st1" d="M39.8,15.4c-0.5-0.5-0.8-1.3-0.8-2.2c0-1,0.3-1.8,0.8-2.4s1.3-0.9,2.3-0.9c0.7,0,1.3,0.1,1.8,0.3v0.9
		c-0.5-0.2-1.1-0.3-1.7-0.3c-0.8,0-1.3,0.2-1.6,0.6c-0.3,0.4-0.5,1-0.5,1.8c0,1.4,0.7,2.2,2,2.2c0.5,0,1-0.1,1.3-0.2v-1.7h-1.5v-0.7
		h2.4v3c-0.2,0.1-0.5,0.3-0.9,0.4c-0.4,0.1-0.8,0.1-1.3,0.1C41.1,16.2,40.3,16,39.8,15.4z"/>
	<path class="st1" d="M45.3,10h4.3v0.8h-3.2v1.9h2.9v0.8h-2.9v1.9h3.2v0.8h-4.3V10z"/>
	<path class="st1" d="M50.5,10h0.9l3.2,4.5V10h1v6.1h-0.9l-3.2-4.5v4.5h-1V10z"/>
	<path class="st1" d="M56.9,10h4.3v0.8h-3.2v1.9h2.9v0.8h-2.9v1.9h3.2v0.8h-4.3V10z"/>
	<path class="st1" d="M62.1,10H65c0.7,0,1.2,0.2,1.5,0.5c0.3,0.3,0.5,0.8,0.5,1.4c0,0.4-0.1,0.8-0.3,1.1c-0.2,0.3-0.5,0.5-0.9,0.6
		c0.1,0.1,0.2,0.2,0.3,0.3c0.1,0.1,0.1,0.2,0.2,0.4l0.8,1.8h-1.1l-0.8-1.7c-0.1-0.2-0.2-0.3-0.3-0.4S64.6,14,64.3,14h-1.2v2.2h-1V10
		z M64.7,13.1c0.8,0,1.2-0.4,1.2-1.2c0-0.8-0.4-1.2-1.1-1.2h-1.6v2.3H64.7z"/>
	<path class="st1" d="M69.7,10h1.2l2.3,6.1h-1.1l-0.6-1.6H69l-0.6,1.6h-1.1L69.7,10z M71.3,13.8l-1.1-2.8l-1.1,2.8H71.3z"/>
	<path class="st1" d="M74.6,10.8h-2V10h5v0.8h-2v5.3h-1V10.8z"/>
	<path class="st1" d="M78.4,15.5c-0.5-0.5-0.7-1.3-0.7-2.4c0-1.1,0.2-1.9,0.7-2.4s1.2-0.8,2.2-0.8s1.7,0.3,2.2,0.8s0.7,1.3,0.7,2.4
		c0,1.1-0.2,1.9-0.7,2.4c-0.5,0.5-1.2,0.8-2.2,0.8S78.9,16,78.4,15.5z M82,14.8c0.3-0.4,0.4-0.9,0.4-1.7c0-0.8-0.1-1.4-0.4-1.8
		c-0.3-0.3-0.8-0.5-1.4-0.5c-0.6,0-1.1,0.2-1.4,0.5c-0.3,0.3-0.4,0.9-0.4,1.8c0,0.8,0.1,1.4,0.4,1.7s0.8,0.5,1.4,0.5
		C81.3,15.4,81.7,15.2,82,14.8z"/>
	<path class="st1" d="M84.5,10h2.8c0.7,0,1.2,0.2,1.5,0.5c0.3,0.3,0.5,0.8,0.5,1.4c0,0.4-0.1,0.8-0.3,1.1c-0.2,0.3-0.5,0.5-0.9,0.6
		c0.1,0.1,0.2,0.2,0.3,0.3c0.1,0.1,0.1,0.2,0.2,0.4l0.8,1.8h-1.1l-0.8-1.7c-0.1-0.2-0.2-0.3-0.3-0.4S87,14,86.7,14h-1.2v2.2h-1V10z
		 M87.1,13.1c0.8,0,1.2-0.4,1.2-1.2c0-0.8-0.4-1.2-1.1-1.2h-1.6v2.3H87.1z"/>
</g>
</svg>
