<?xml version="1.0" encoding="utf-8"?>
<!-- Generator: Adobe Illustrator 27.5.0, SVG Export Plug-In . SVG Version: 6.00 Build 0)  -->
<svg version="1.1" id="Layer_1" xmlns="http://www.w3.org/2000/svg" xmlns:xlink="http://www.w3.org/1999/xlink" x="0px" y="0px"
	 viewBox="0 0 512 424" style="enable-background:new 0 0 512 424;" xml:space="preserve">
<style type="text/css">
	.st0{fill:#FFFFFF;}
	.st1{fill:url(#SVGID_1_);}
	.st2{fill:url(#SVGID_00000015318766088767666030000006444021568083306407_);}
	.st3{fill:url(#SVGID_00000008113304460669652850000013500257667947186101_);}
</style>
<path class="st0" d="M444.5,321.5c-22.4,13.8-48.5,22.4-77.8,22.4c-79.6,0-136.6-58.8-136.6-131.4l0,0
	c0-72.7,58.8-133.2,138.3-133.2S505,138.2,505,210.7l0,0c0,27.7-8.6,51.9-22.4,72.7l25.9,22.4l-36.4,39.9L444.5,321.5z M392.6,276.6
	L358,245.5l36.3-39.7l34.6,31.2c3.5-6.9,5.1-15.5,5.1-24.2l0,0c0-38.1-25.9-69.2-65.8-69.2c-38.1,0-64,32.8-64,69.2l0,0
	c0,36.3,25.9,69.2,65.8,69.2C377,281.7,385.7,280.1,392.6,276.6z"/>
<linearGradient id="SVGID_1_" gradientUnits="userSpaceOnUse" x1="1.5" y1="-365.9737" x2="214.851" y2="-365.9737" gradientTransform="matrix(1 0 0 -1 0 -54)">
	<stop  offset="0" style="stop-color:#26A9E1"/>
	<stop  offset="1" style="stop-color:#1B7DA6"/>
</linearGradient>
<polygon class="st1" points="1.5,282.6 1.5,282.6 1.5,343 214.1,343 214.1,280.9 1.5,280.9 "/>
<linearGradient id="SVGID_00000061467692036172447820000001744914664298059435_" gradientUnits="userSpaceOnUse" x1="1.5" y1="-266.5" x2="214.851" y2="-266.5" gradientTransform="matrix(1 0 0 -1 0 -54)">
	<stop  offset="0" style="stop-color:#26A9E1"/>
	<stop  offset="1" style="stop-color:#1B7DA6"/>
</linearGradient>
<polygon style="fill:url(#SVGID_00000061467692036172447820000001744914664298059435_);" points="1.5,182.2 1.5,182.2 1.5,242.8 
	214.1,242.8 214.1,182.2 "/>
<linearGradient id="SVGID_00000161614985751971342240000002603840044767440788_" gradientUnits="userSpaceOnUse" x1="1.5" y1="-167.1015" x2="214.851" y2="-167.1015" gradientTransform="matrix(1 0 0 -1 0 -54)">
	<stop  offset="0" style="stop-color:#26A9E1"/>
	<stop  offset="1" style="stop-color:#1B7DA6"/>
</linearGradient>
<polygon style="fill:url(#SVGID_00000161614985751971342240000002603840044767440788_);" points="1.5,83.6 1.5,83.6 1.5,144.3 
	214.1,144.3 214.1,82 1.5,82 "/>
</svg>
