<?xml version="1.0" encoding="utf-8"?>
<!-- Generator: Adobe Illustrator 27.5.0, SVG Export Plug-In . SVG Version: 6.00 Build 0)  -->
<svg version="1.1" id="Layer_1" xmlns="http://www.w3.org/2000/svg" xmlns:xlink="http://www.w3.org/1999/xlink" x="0px" y="0px"
	 viewBox="0 0 512 424" style="enable-background:new 0 0 512 424;" xml:space="preserve">
<style type="text/css">
	.st0{fill:#272727;}
	.st1{fill:url(#SVGID_1_);}
	.st2{fill:url(#SVGID_00000135682542164013462130000012176230821111618689_);}
	.st3{fill:url(#SVGID_00000122679259650775796000000002543941829267989931_);}
</style>
<path class="st0" d="M445.5,321c-22.4,13.8-48.5,22.4-77.8,22.4c-79.6,0-136.6-58.8-136.6-131.4l0,0c0-72.7,58.8-133.2,138.3-133.2
	S506,137.7,506,210.2l0,0c0,27.7-8.6,51.9-22.4,72.7l25.9,22.4l-36.4,39.9L445.5,321z M393.6,276.1L359,245l36.3-39.7l34.6,31.2
	c3.5-6.9,5.1-15.5,5.1-24.2l0,0c0-38.1-25.9-69.2-65.8-69.2c-38.1,0-64,32.8-64,69.2l0,0c0,36.3,25.9,69.2,65.8,69.2
	C378,281.2,386.7,279.6,393.6,276.1z"/>
<linearGradient id="SVGID_1_" gradientUnits="userSpaceOnUse" x1="2.5" y1="-365.4737" x2="215.851" y2="-365.4737" gradientTransform="matrix(1 0 0 -1 0 -54)">
	<stop  offset="0" style="stop-color:#26A9E1"/>
	<stop  offset="1" style="stop-color:#1B7DA6"/>
</linearGradient>
<polygon class="st1" points="2.5,282.1 2.5,282.1 2.5,342.5 215.1,342.5 215.1,280.4 2.5,280.4 "/>
<linearGradient id="SVGID_00000032634035719160044130000011233988729384995215_" gradientUnits="userSpaceOnUse" x1="2.5" y1="-266" x2="215.851" y2="-266" gradientTransform="matrix(1 0 0 -1 0 -54)">
	<stop  offset="0" style="stop-color:#26A9E1"/>
	<stop  offset="1" style="stop-color:#1B7DA6"/>
</linearGradient>
<polygon style="fill:url(#SVGID_00000032634035719160044130000011233988729384995215_);" points="2.5,181.7 2.5,181.7 2.5,242.3 
	215.1,242.3 215.1,181.7 "/>
<linearGradient id="SVGID_00000179627904191811219920000002431263258094204830_" gradientUnits="userSpaceOnUse" x1="2.5" y1="-166.6015" x2="215.851" y2="-166.6015" gradientTransform="matrix(1 0 0 -1 0 -54)">
	<stop  offset="0" style="stop-color:#26A9E1"/>
	<stop  offset="1" style="stop-color:#1B7DA6"/>
</linearGradient>
<polygon style="fill:url(#SVGID_00000179627904191811219920000002431263258094204830_);" points="2.5,83.1 2.5,83.1 2.5,143.8 
	215.1,143.8 215.1,81.5 2.5,81.5 "/>
</svg>
