<?xml version="1.0" encoding="utf-8"?>
<!-- Generator: Adobe Illustrator 27.5.0, SVG Export Plug-In . SVG Version: 6.00 Build 0)  -->
<svg version="1.1" id="Layer_1" xmlns="http://www.w3.org/2000/svg" xmlns:xlink="http://www.w3.org/1999/xlink" x="0px" y="0px"
	 viewBox="0 0 512 424" style="enable-background:new 0 0 512 424;" xml:space="preserve">
<style type="text/css">
	.st0{fill:url(#SVGID_1_);}
	.st1{fill:url(#SVGID_00000013176612639925171850000004088103563794270621_);}
	.st2{fill:url(#SVGID_00000115495029300608866850000008674215802950692514_);}
</style>
<g>
	<linearGradient id="SVGID_1_" gradientUnits="userSpaceOnUse" x1="114.5264" y1="129.9878" x2="114.5264" y2="281.5">
		<stop  offset="0" style="stop-color:#26A9E1"/>
		<stop  offset="1" style="stop-color:#1B7DA6"/>
	</linearGradient>
	<path class="st0" d="M59.1,130h47.4l34.4,72.3l19.5-72.3h50.2l-40.7,151.5h-45L89,206.2l-20.3,75.3H18.4L59.1,130z"/>
	
		<linearGradient id="SVGID_00000124122625251254140920000000035423860300120477_" gradientUnits="userSpaceOnUse" x1="270.1426" y1="129.9878" x2="270.1426" y2="281.5">
		<stop  offset="0" style="stop-color:#26A9E1"/>
		<stop  offset="1" style="stop-color:#1B7DA6"/>
	</linearGradient>
	<path style="fill:url(#SVGID_00000124122625251254140920000000035423860300120477_);" d="M227.1,130h126.8l-11.7,43.3H266
		l-5.2,19.3h70.8L321,231.9h-70.8L237,281.5h-50.6L227.1,130z"/>
	
		<linearGradient id="SVGID_00000172433828199866273110000010651867331435056004_" gradientUnits="userSpaceOnUse" x1="424.1372" y1="129.9878" x2="424.1372" y2="281.5">
		<stop  offset="0" style="stop-color:#26A9E1"/>
		<stop  offset="1" style="stop-color:#1B7DA6"/>
	</linearGradient>
	<path style="fill:url(#SVGID_00000172433828199866273110000010651867331435056004_);" d="M393.1,172.8h-44.6L360,130h139.8
		l-11.5,42.9h-44.6l-29.2,108.7h-50.6L393.1,172.8z"/>
</g>
</svg>
